<?xml version="1.0" standalone="no"?>
<!DOCTYPE svg PUBLIC "-//W3C//DTD SVG 20010904//EN"
 "http://www.w3.org/TR/2001/REC-SVG-20010904/DTD/svg10.dtd">
<svg version="1.0" xmlns="http://www.w3.org/2000/svg"
 width="512.000000pt" height="512.000000pt" viewBox="0 0 512.000000 512.000000"
 preserveAspectRatio="xMidYMid meet">
<metadata>
Created by potrace 1.14, written by Peter Selinger 2001-2017
</metadata>
<g transform="translate(0.000000,512.000000) scale(0.100000,-0.100000)"
fill="#000000" stroke="none">
<path d="M2449 5036 c-2 -2 -28 -6 -57 -10 -77 -9 -235 -62 -328 -111 -202
-105 -379 -283 -489 -495 -16 -30 -45 -102 -65 -158 l-37 -104 -13 32 c-20 49
-156 182 -230 225 -96 56 -186 85 -222 73 -50 -18 -62 -58 -61 -218 0 -132 33
-258 100 -381 3 -6 -19 -14 -62 -25 -33 -7 -121 -48 -156 -71 -82 -54 -81
-106 4 -176 73 -60 97 -69 125 -51 20 13 26 13 52 1 16 -8 51 -21 79 -28 l50
-13 -78 -51 c-103 -67 -154 -121 -228 -240 -55 -88 -108 -277 -126 -448 -3
-21 -7 -40 -10 -43 -3 -3 -27 10 -54 29 -60 42 -142 77 -182 77 -18 0 -38 -9
-50 -21 -37 -40 -40 -201 -6 -313 20 -65 19 -66 -11 -66 -40 0 -161 -38 -226
-71 -73 -37 -98 -64 -98 -106 0 -29 11 -46 72 -107 74 -75 154 -133 220 -160
33 -14 38 -14 59 2 21 18 24 18 77 0 30 -10 63 -18 74 -18 23 0 23 -4 -7 -48
-59 -85 -80 -237 -50 -354 30 -116 89 -198 188 -262 105 -67 212 -217 189
-263 -5 -10 -19 -47 -31 -82 -65 -189 -41 -325 76 -437 72 -70 203 -137 310
-159 112 -24 286 -26 387 -5 l55 11 58 -39 c61 -42 214 -125 248 -135 11 -3
45 -15 75 -26 49 -18 152 -46 205 -57 100 -20 391 -26 490 -11 28 4 62 9 77
11 14 2 35 7 46 10 11 4 31 9 44 11 105 20 346 128 446 200 41 29 58 36 78 31
76 -19 252 -26 354 -13 192 23 390 146 454 281 45 95 38 231 -20 369 l-25 60
30 62 c33 66 102 137 203 209 30 22 69 60 86 85 89 131 107 331 40 463 -10 21
-14 39 -8 39 15 2 19 3 85 23 123 37 240 111 333 210 50 54 62 73 62 100 0 45
-22 67 -110 109 -90 43 -167 66 -240 72 -30 2 -56 4 -57 4 -1 1 1 11 6 23 4
13 19 25 32 28 40 10 53 53 54 171 0 154 -23 185 -120 160 -48 -12 -163 -75
-182 -100 -7 -9 -13 -11 -13 -6 -1 9 -3 27 -14 115 -34 271 -157 505 -319 608
l-45 28 62 24 c120 46 246 144 246 193 0 41 -9 55 -57 87 -84 57 -140 72 -163
45 -9 -11 -23 -14 -49 -9 -20 4 -37 8 -39 9 -2 1 13 29 32 62 38 65 79 179 93
258 12 67 8 233 -6 277 -13 38 -60 70 -90 61 -173 -54 -314 -153 -392 -274
-30 -48 -49 -55 -49 -21 0 24 -42 136 -80 216 -142 293 -489 556 -805 611 -42
7 -290 16 -296 11z"/>
</g>
</svg>
